<svg width="16" height="16" viewBox="0 0 16 16" fill="none" xmlns="http://www.w3.org/2000/svg">
<g clip-path="url(#clip0_326_117)">
<path d="M12.25 0H3.75C1.67893 0 0 1.67893 0 3.75V12.25C0 14.3211 1.67893 16 3.75 16H12.25C14.3211 16 16 14.3211 16 12.25V3.75C16 1.67893 14.3211 0 12.25 0Z" fill="#18181B"/>
<path fill-rule="evenodd" clip-rule="evenodd" d="M9.85744 2.06319C9.95956 2.18994 10.0116 2.361 10.1157 2.703L12.3904 10.1756C11.536 9.73219 10.6189 9.4217 9.67087 9.25481L8.18981 4.24981C8.18098 4.21999 8.16506 4.19275 8.14342 4.17042C8.12178 4.14808 8.09506 4.1313 8.06554 4.12152C8.03601 4.11175 8.00456 4.10925 7.97387 4.11425C7.94317 4.11925 7.91414 4.1316 7.88925 4.15025C7.85594 4.17525 7.83163 4.21037 7.81994 4.25037L6.35675 9.25231C5.40443 9.41844 4.48317 9.72942 3.625 10.1744L5.91081 2.70131C6.01537 2.35981 6.0675 2.18912 6.16962 2.06262C6.25975 1.95091 6.377 1.86415 6.51019 1.81062C6.66106 1.75 6.83956 1.75 7.19669 1.75H8.82938C9.18694 1.75 9.36569 1.75 9.51669 1.81075C9.64998 1.86441 9.7673 1.95128 9.85744 2.06319Z" fill="#FAFAFA"/>
<path fill-rule="evenodd" clip-rule="evenodd" d="M10.1297 10.5312C9.75467 10.8519 9.00617 11.0705 8.14404 11.0705C7.08585 11.0705 6.19892 10.7411 5.9636 10.2981C5.87948 10.552 5.8606 10.8426 5.8606 11.0283C5.8606 11.0283 5.80517 11.9398 6.43917 12.5738C6.4392 12.4158 6.50202 12.2641 6.6138 12.1524C6.72559 12.0406 6.8772 11.9778 7.03529 11.9777C7.59954 11.9777 7.59892 12.47 7.59835 12.8695V12.9051C7.59835 13.5113 7.96885 14.031 8.49579 14.25C8.41468 14.0831 8.37265 13.8999 8.37292 13.7143C8.37292 13.1361 8.71242 12.9208 9.10692 12.6707C9.42079 12.4716 9.76954 12.2504 10.0099 11.8067C10.1394 11.5677 10.2069 11.3001 10.2065 11.0283C10.2065 10.855 10.1795 10.688 10.1297 10.5312Z" fill="#FF5D01"/>
<path fill-rule="evenodd" clip-rule="evenodd" d="M10.1297 10.5312C9.75467 10.8519 9.00617 11.0705 8.14404 11.0705C7.08585 11.0705 6.19892 10.7411 5.9636 10.2981C5.87948 10.552 5.8606 10.8426 5.8606 11.0283C5.8606 11.0283 5.80517 11.9398 6.43917 12.5738C6.4392 12.4158 6.50202 12.2641 6.6138 12.1524C6.72559 12.0406 6.8772 11.9778 7.03529 11.9777C7.59954 11.9777 7.59892 12.47 7.59835 12.8695V12.9051C7.59835 13.5113 7.96885 14.031 8.49579 14.25C8.41468 14.0831 8.37265 13.8999 8.37292 13.7143C8.37292 13.1361 8.71242 12.9208 9.10692 12.6707C9.42079 12.4716 9.76954 12.2504 10.0099 11.8067C10.1394 11.5677 10.2069 11.3001 10.2065 11.0283C10.2065 10.855 10.1795 10.688 10.1297 10.5312Z" fill="url(#paint0_linear_326_117)"/>
</g>
<defs>
<linearGradient id="paint0_linear_326_117" x1="11.8181" y1="7.92285" x2="9.59785" y2="12.5708" gradientUnits="userSpaceOnUse">
<stop stop-color="#FF1639"/>
<stop offset="1" stop-color="#FF1639" stop-opacity="0"/>
</linearGradient>
<clipPath id="clip0_326_117">
<rect width="16" height="16" fill="white"/>
</clipPath>
</defs>
</svg>
