<svg viewBox="0 0 128 128" fill="none" xmlns="http://www.w3.org/2000/svg">
<g clip-path="url(#clip0_416_5)">
<path d="M124.399 52.733C121.562 50.7643 115.06 50.026 109.976 51.0104C109.385 46.0887 106.666 41.7822 101.937 37.9679L99.2182 35.9993L97.3267 38.8292C94.9623 42.5205 93.7801 47.6883 94.1348 52.6099C94.253 54.3325 94.8441 57.4086 96.6174 60.1155C94.9623 61.0998 91.5339 62.3302 87.0416 62.3302H1.56836L1.33192 63.3146C0.504382 68.2362 0.504381 83.6165 10.1984 95.4285C17.5281 104.411 28.4043 108.963 42.709 108.963C73.6827 108.963 96.6174 94.075 107.375 67.1289C111.631 67.2519 120.734 67.1289 125.345 57.9007C125.463 57.6546 125.7 57.1625 126.527 55.3168L127 54.3325L124.399 52.733ZM69.8996 18.0352H56.8954V30.3393H69.8996V18.0352ZM69.8996 32.8002H56.8954V45.1044H69.8996V32.8002ZM54.531 32.8002H41.5268V45.1044H54.531V32.8002ZM39.1624 32.8002H26.1582V45.1044H39.1624V32.8002ZM23.7938 47.5652H10.7895V59.8694H23.7938V47.5652ZM39.1624 47.5652H26.1582V59.8694H39.1624V47.5652ZM54.531 47.5652H41.5268V59.8694H54.531V47.5652ZM69.8996 47.5652H56.8954V59.8694H69.8996V47.5652ZM85.2682 47.5652H72.264V59.8694H85.2682V47.5652Z" fill="#2396ED"/>
</g>
<defs>
<clipPath id="clip0_416_5">
<rect width="126" height="91.0547" fill="white" transform="translate(1 18.0352)"/>
</clipPath>
</defs>
</svg>
