<svg width="128" height="129" viewBox="0 0 128 129" fill="none" xmlns="http://www.w3.org/2000/svg">
<g clip-path="url(#clip0_416_10)">
<path d="M116.155 97.7463L72.2584 4.52556C71.1472 2.18831 68.8441 0.648406 66.2596 0.514663C63.6692 0.341099 61.1972 1.6226 59.846 3.83953L12.2353 80.9528C10.7572 83.33 10.7883 86.3477 12.3151 88.6938L35.5923 124.741C37.4009 127.52 40.8221 128.778 44.0002 127.833L111.551 107.852C113.608 107.25 115.304 105.786 116.2 103.838C117.083 101.899 117.068 99.6696 116.158 97.7431L116.155 97.7463ZM106.327 101.744L49.0067 118.694C47.2581 119.214 45.5797 117.699 45.9435 115.934L66.4223 17.8761C66.8052 16.0413 69.3388 15.751 70.1397 17.4485L108.05 97.9537C108.389 98.6797 108.393 99.5179 108.061 100.247C107.729 100.977 107.097 101.524 106.327 101.744Z" fill="#FAFAFA"/>
</g>
<defs>
<clipPath id="clip0_416_10">
<rect width="105.703" height="128" fill="white" transform="translate(11.1484 0.5)"/>
</clipPath>
</defs>
</svg>
