<svg width="16" height="16" viewBox="0 0 16 16" fill="none" xmlns="http://www.w3.org/2000/svg">
<g clip-path="url(#clip0_326_167)">
<path d="M12.25 0H3.75C1.67893 0 0 1.67893 0 3.75V12.25C0 14.3211 1.67893 16 3.75 16H12.25C14.3211 16 16 14.3211 16 12.25V3.75C16 1.67893 14.3211 0 12.25 0Z" fill="#242938"/>
<path d="M8.00011 9.18442C8.64411 9.18442 9.16611 8.66235 9.16611 8.01842C9.16611 7.37448 8.64411 6.85242 8.00011 6.85242C7.35611 6.85242 6.83411 7.37448 6.83411 8.01842C6.83411 8.66235 7.35617 9.18442 8.00011 9.18442Z" fill="#00D8FF"/>
<path d="M8.00012 5.64771C9.56562 5.64771 11.0199 5.87233 12.1165 6.24989C13.4377 6.70471 14.25 7.39414 14.25 8.01846C14.25 8.66902 13.3891 9.40146 11.9703 9.87152C10.8977 10.2269 9.48619 10.4124 8.00012 10.4124C6.4765 10.4124 5.03369 10.2383 3.94894 9.86758C2.57656 9.39852 1.75 8.65664 1.75 8.01846C1.75 7.39921 2.52562 6.71508 3.82825 6.26096C4.92887 5.87721 6.41906 5.64771 7.99988 5.64771H8.00012Z" stroke="#00D8FF" stroke-width="0.556938"/>
<path d="M5.93631 6.83987C6.71844 5.48375 7.6395 4.33612 8.51437 3.57487C9.56837 2.65756 10.5715 2.29831 11.1122 2.61012C11.6758 2.93512 11.8802 4.04687 11.5787 5.51075C11.3509 6.61744 10.8062 7.93281 10.0638 9.22019C9.30262 10.5401 8.43106 11.7029 7.56812 12.4572C6.47619 13.4117 5.4205 13.7571 4.86769 13.4383C4.33125 13.1292 4.12612 12.1154 4.3835 10.7601C4.60094 9.61487 5.14662 8.20931 5.93606 6.83987H5.93631Z" stroke="#00D8FF" stroke-width="0.556938"/>
<path d="M5.93829 9.22366C5.15398 7.86904 4.61998 6.49766 4.39711 5.35954C4.12879 3.98822 4.31848 2.93979 4.85879 2.62704C5.42186 2.30104 6.48704 2.67916 7.60467 3.67154C8.44967 4.42179 9.31736 5.55035 10.0619 6.83647C10.8253 8.1551 11.3974 9.49103 11.62 10.6153C11.9016 12.038 11.6737 13.1251 11.1214 13.4448C10.5855 13.755 9.60479 13.4266 8.55911 12.5267C7.67561 11.7665 6.73036 10.5918 5.93829 9.22366Z" stroke="#00D8FF" stroke-width="0.556938"/>
</g>
<defs>
<clipPath id="clip0_326_167">
<rect width="16" height="16" fill="white"/>
</clipPath>
</defs>
</svg>
