<svg width="16" height="16" viewBox="0 0 16 16" fill="none" xmlns="http://www.w3.org/2000/svg">
<g clip-path="url(#clip0_326_186)">
<path d="M12.25 0H3.75C1.67893 0 0 1.67893 0 3.75V12.25C0 14.3211 1.67893 16 3.75 16H12.25C14.3211 16 16 14.3211 16 12.25V3.75C16 1.67893 14.3211 0 12.25 0Z" fill="#007ACC"/>
<path d="M3.53814 8.05308L3.53308 8.70833H5.61558V14.6258H7.08864V8.70833H9.17114V8.06577C9.17114 7.7102 9.16358 7.41308 9.15339 7.40545C9.14577 7.39533 7.87846 7.3902 6.34196 7.39277L3.54577 7.40039L3.53814 8.05308ZM12.9104 7.38177C13.3167 7.48339 13.6266 7.6637 13.911 7.95827C14.0583 8.11577 14.2767 8.40277 14.2945 8.47133C14.2996 8.49164 13.6037 8.95895 13.1821 9.22052C13.1669 9.2307 13.1059 9.16464 13.0373 9.06308C12.8316 8.76339 12.6158 8.63383 12.2856 8.61102C11.8005 8.57795 11.4881 8.83195 11.4907 9.25608C11.4907 9.38052 11.5085 9.45414 11.5593 9.55577C11.6659 9.7767 11.864 9.90877 12.4863 10.178C13.6316 10.6707 14.1218 10.9958 14.4266 11.458C14.7669 11.9735 14.8431 12.7964 14.612 13.4085C14.358 14.0738 13.7281 14.5259 12.8418 14.6758C12.5675 14.724 11.9173 14.7164 11.6228 14.6631C10.9802 14.5488 10.3707 14.2313 9.99483 13.8148C9.84752 13.6523 9.56052 13.2281 9.57833 13.1976C9.58589 13.1875 9.65196 13.1469 9.72558 13.1037C9.79671 13.0631 10.066 12.9081 10.3199 12.7608L10.7796 12.4941L10.8761 12.6364C11.0107 12.8421 11.3053 13.124 11.4831 13.218C11.9935 13.4872 12.6945 13.4491 13.0399 13.1393C13.1872 13.0046 13.2481 12.865 13.2481 12.6593C13.2481 12.4738 13.2253 12.3926 13.1288 12.2529C13.0043 12.0751 12.7504 11.9253 12.0291 11.6129C11.2037 11.2573 10.8481 11.0364 10.5231 10.6859C10.3351 10.4828 10.1573 10.1576 10.0837 9.88589C10.0228 9.65989 10.0075 9.09352 10.0558 8.86495C10.2259 8.06752 10.8278 7.51133 11.6964 7.3462C11.9783 7.29289 12.6335 7.3132 12.9104 7.38177Z" fill="white"/>
</g>
<defs>
<clipPath id="clip0_326_186">
<rect width="16" height="16" fill="white"/>
</clipPath>
</defs>
</svg>
